<?xml version="1.0" standalone="no"?>
<!DOCTYPE svg PUBLIC "-//W3C//DTD SVG 20010904//EN"
 "http://www.w3.org/TR/2001/REC-SVG-20010904/DTD/svg10.dtd">
<svg version="1.0" xmlns="http://www.w3.org/2000/svg"
 width="300.000000pt" height="78.000000pt" viewBox="0 0 300.000000 78.000000"
 preserveAspectRatio="xMidYMid meet">

<g transform="translate(0.000000,78.000000) scale(0.100000,-0.100000)"
fill="#000000" stroke="none">
<path d="M2519 752 c-106 -36 -183 -106 -232 -212 -16 -35 -21 -66 -21 -140
-1 -86 2 -101 30 -160 61 -129 188 -219 320 -228 170 -11 352 104 370 233 l6
40 -22 -43 c-13 -24 -24 -41 -27 -39 -2 3 3 33 12 67 9 34 15 78 13 99 l-3 36
-22 -57 c-14 -37 -41 -78 -75 -113 -108 -115 -225 -140 -347 -75 -137 73 -184
220 -120 370 78 180 316 210 456 56 38 -42 43 -45 27 -17 -24 42 -64 73 -145
112 -57 28 -71 31 -124 26 -33 -3 -71 -8 -85 -12 -17 -3 -14 0 10 11 19 9 67
18 107 21 70 6 77 4 148 -31 71 -35 101 -63 152 -142 7 -11 5 0 -4 23 -51 137
-269 226 -424 175z"/>
<path d="M312 690 c-67 -41 -121 -150 -91 -186 11 -13 15 -8 26 37 8 29 25 68
39 86 26 34 62 59 71 49 3 -3 -9 -55 -26 -115 -18 -61 -30 -115 -26 -121 10
-16 25 -12 25 8 0 10 9 35 20 56 10 22 17 42 15 46 -3 4 4 33 14 63 18 52 18
56 3 70 -30 25 -38 26 -70 7z"/>
<path d="M411 614 c-24 -30 -41 -57 -38 -60 2 -3 15 9 27 26 12 17 24 29 26
27 2 -2 -5 -29 -16 -60 -21 -59 -26 -112 -11 -121 4 -3 13 11 19 32 12 40 68
122 83 122 6 0 6 -8 -1 -19 -5 -11 -17 -45 -25 -77 -16 -62 -8 -121 19 -143
12 -10 13 -7 3 24 -14 46 0 120 38 200 21 44 25 59 15 68 -9 9 -24 -2 -66 -48
l-55 -60 31 63 c30 61 32 83 7 82 -7 -1 -32 -26 -56 -56z"/>
<path d="M1390 660 c0 -7 -14 -25 -31 -41 -22 -20 -26 -29 -15 -29 20 0 20 5
-4 -65 -25 -72 -25 -82 0 -95 17 -9 24 -7 42 13 l21 24 22 -25 c22 -25 23 -26
49 -8 15 9 32 28 38 41 6 13 17 26 25 29 12 5 14 -1 8 -34 -8 -49 7 -53 30 -7
16 30 20 42 32 95 8 34 -23 28 -36 -8 -11 -33 -25 -38 -39 -14 -12 22 -28 11
-37 -23 -7 -31 -44 -75 -56 -68 -9 6 3 53 22 83 7 12 26 27 41 33 32 13 28 29
-7 29 -25 0 -75 -51 -75 -76 0 -17 -44 -64 -60 -64 -14 0 -13 12 11 75 15 41
28 59 47 67 21 9 23 12 10 15 -11 3 -16 13 -15 30 1 14 -4 28 -10 30 -7 3 -13
-1 -13 -7z"/>
<path d="M750 632 c-20 -17 -19 -17 34 -19 40 -2 58 2 67 14 12 14 11 15 -7 9
-12 -3 -33 -2 -47 3 -20 8 -31 6 -47 -7z"/>
<path d="M1259 567 c-12 -27 -13 -36 -2 -46 20 -19 16 -69 -7 -81 -17 -9 -20
-8 -20 8 0 10 5 23 12 30 9 9 7 13 -6 18 -23 9 -39 -8 -34 -37 4 -29 50 -49
76 -33 14 9 17 27 17 89 0 86 -12 104 -36 52z"/>
<path d="M610 523 c-47 -74 -62 -74 -31 0 19 45 18 57 -4 57 -13 0 -45 -85
-45 -121 0 -44 28 -44 53 -1 22 37 22 37 25 10 5 -39 28 -55 50 -35 15 13 21
14 31 4 10 -9 15 -9 24 4 7 8 24 30 39 49 l27 34 -6 -41 c-5 -35 -2 -43 16
-52 18 -10 25 -8 46 15 19 20 25 23 25 11 0 -9 9 -21 20 -27 26 -14 53 0 77
40 9 17 25 33 35 36 16 5 15 7 -3 25 -16 16 -23 18 -35 8 -8 -6 -14 -20 -14
-30 0 -22 -46 -77 -56 -67 -11 12 13 82 35 102 10 9 28 18 40 19 24 2 28 15 6
23 -32 13 -62 -6 -88 -53 -14 -27 -37 -59 -51 -72 l-26 -24 0 24 c0 13 9 44
21 68 27 61 9 80 -29 31 -15 -19 -37 -46 -50 -60 l-23 -25 21 44 c14 29 18 47
12 53 -15 15 -29 2 -42 -40 -14 -43 -60 -96 -73 -83 -5 5 2 34 16 67 24 56 26
74 8 74 -4 0 -27 -30 -51 -67z"/>
<path d="M1022 570 c2 -8 16 -16 31 -18 15 -2 27 -6 27 -9 0 -17 -54 -73 -71
-73 -12 0 -19 -7 -19 -20 0 -22 12 -25 39 -11 12 7 26 5 45 -5 41 -21 45 -17
12 11 l-30 24 38 41 c50 56 45 72 -22 74 -42 1 -52 -2 -50 -14z"/>
<path d="M1658 579 c-9 -5 -27 -24 -40 -42 -15 -21 -17 -27 -5 -18 15 12 17
11 17 -8 0 -35 24 -23 43 21 18 45 13 63 -15 47z"/>
<path d="M1717 572 c-39 -42 -47 -109 -18 -136 25 -22 49 -15 87 26 l29 31
-47 -27 c-26 -15 -52 -25 -58 -21 -16 10 6 42 35 49 13 3 32 18 41 31 16 24
15 27 -1 45 -22 25 -47 25 -68 2z m53 -22 c0 -13 -37 -50 -51 -50 -6 0 -1 14
11 30 21 30 40 39 40 20z"/>
<path d="M4 239 c-3 -6 -1 -16 6 -22 10 -9 11 -9 5 2 -4 8 -2 17 6 22 9 6 10
9 2 9 -6 0 -15 -5 -19 -11z"/>
<path d="M88 243 c7 -3 16 -2 19 1 4 3 -2 6 -13 5 -11 0 -14 -3 -6 -6z"/>
<path d="M128 233 c6 -2 18 -2 25 0 6 3 1 5 -13 5 -14 0 -19 -2 -12 -5z"/>
<path d="M348 210 c-3 -16 -1 -30 4 -30 4 0 8 14 8 30 0 17 -2 30 -4 30 -2 0
-6 -13 -8 -30z"/>
<path d="M762 228 c-7 -7 -12 -17 -12 -22 0 -6 5 -3 11 7 6 9 14 15 20 12 5
-4 9 -1 9 4 0 14 -13 14 -28 -1z"/>
<path d="M1732 228 c-7 -7 -12 -19 -11 -27 0 -9 5 -5 11 9 10 24 10 24 18 5 7
-16 9 -17 9 -3 1 22 -13 30 -27 16z"/>
<path d="M183 223 c9 -2 23 -2 30 0 6 3 -1 5 -18 5 -16 0 -22 -2 -12 -5z"/>
<path d="M112 190 c0 -19 2 -27 5 -17 2 9 2 25 0 35 -3 9 -5 1 -5 -18z"/>
<path d="M1931 160 c0 -20 -7 -42 -13 -49 -11 -11 -10 -12 2 -5 8 5 20 9 27
10 6 1 19 7 30 13 15 9 13 10 -12 4 -28 -6 -29 -5 -16 11 9 10 23 15 34 12 15
-4 17 -2 8 7 -9 9 -16 9 -31 0 -16 -11 -19 -9 -23 10 -3 14 -5 9 -6 -13z"/>
<path d="M505 169 c3 -9 -2 -22 -11 -30 -16 -13 -17 -12 -11 10 3 13 2 20 -3
15 -4 -5 -10 -20 -12 -33 -5 -42 -28 -37 -28 6 0 24 -3 33 -9 25 -10 -16 -3
-60 11 -68 5 -4 14 -2 20 4 6 6 19 6 39 -1 26 -10 32 -9 52 13 18 20 19 22 1
7 -40 -33 -81 -13 -48 24 14 15 15 22 5 32 -10 9 -11 9 -6 -4z"/>
<path d="M1025 169 c3 -9 -2 -22 -11 -30 -16 -13 -17 -12 -12 9 4 12 2 20 -3
16 -12 -7 -11 -51 1 -59 6 -3 10 -1 10 6 0 7 8 21 17 31 13 15 14 21 4 31 -10
9 -11 9 -6 -4z"/>
<path d="M824 162 c-6 -4 -17 -18 -24 -31 -10 -19 -10 -25 1 -32 8 -5 19 -9
24 -9 6 0 4 4 -3 9 -20 12 -10 44 18 58 14 7 18 13 10 13 -8 0 -20 -4 -26 -8z"/>
<path d="M1672 156 c7 -8 15 -12 17 -11 5 6 -10 25 -20 25 -5 0 -4 -6 3 -14z"/>
<path d="M1709 138 c-3 -20 -2 -36 1 -36 3 1 13 -2 23 -7 14 -6 25 -1 40 16
l22 23 -22 -18 c-30 -25 -58 -15 -43 15 7 11 9 23 6 27 -3 3 -6 -1 -7 -9 0 -8
-4 -5 -8 6 -7 16 -9 13 -12 -17z"/>
<path d="M1798 164 c-9 -8 0 -54 13 -68 5 -5 14 -4 23 3 10 8 16 9 21 1 3 -5
16 -10 28 -9 20 1 20 2 -3 8 -19 5 -25 14 -25 34 1 29 -11 24 -17 -7 -6 -35
-27 -29 -30 9 -2 20 -6 34 -10 29z"/>
<path d="M1882 156 c7 -8 15 -12 17 -11 5 6 -10 25 -20 25 -5 0 -4 -6 3 -14z"/>
<path d="M149 139 c-6 -13 -7 -19 -1 -15 6 3 12 0 15 -6 2 -7 4 -1 4 15 1 33
-3 34 -18 6z"/>
<path d="M200 146 c0 -8 5 -18 10 -21 6 -3 10 3 10 14 0 12 -4 21 -10 21 -5 0
-10 -6 -10 -14z"/>
<path d="M570 151 c0 -6 5 -13 10 -16 6 -3 10 1 10 9 0 9 -4 16 -10 16 -5 0
-10 -4 -10 -9z"/>
<path d="M635 150 c3 -5 8 -10 11 -10 2 0 4 5 4 10 0 6 -5 10 -11 10 -5 0 -7
-4 -4 -10z"/>
<path d="M702 148 c-7 -7 -12 -18 -12 -24 0 -20 -21 -28 -31 -13 -6 9 -9 10
-9 2 0 -18 19 -26 34 -14 9 7 16 7 24 -1 8 -8 15 -8 27 2 12 10 18 10 33 -1
15 -13 16 -12 3 3 -7 10 -11 28 -8 40 5 20 4 21 -6 6 -7 -9 -17 -25 -23 -35
-10 -15 -14 -16 -25 -5 -11 10 -11 16 -1 32 14 23 12 26 -6 8z"/>
<path d="M1090 155 c0 -4 7 -20 16 -37 16 -30 17 -31 30 -13 8 10 14 24 14 29
-1 6 -7 0 -15 -14 l-14 -25 -7 33 c-3 17 -10 32 -15 32 -5 0 -9 -2 -9 -5z"/>
<path d="M1155 150 c3 -5 8 -10 11 -10 2 0 4 5 4 10 0 6 -5 10 -11 10 -5 0 -7
-4 -4 -10z"/>
<path d="M1306 145 c-3 -8 -1 -15 4 -15 6 0 10 7 10 15 0 8 -2 15 -4 15 -2 0
-6 -7 -10 -15z"/>
<path d="M1357 141 c-4 -17 -3 -21 5 -13 5 5 8 16 6 23 -3 8 -7 3 -11 -10z"/>
<path d="M1427 146 c-4 -10 -3 -15 3 -11 6 3 10 -2 11 -12 0 -10 3 -13 5 -6 3
7 1 20 -4 29 -8 15 -9 15 -15 0z"/>
<path d="M1484 149 c-4 -8 -3 -9 4 -5 8 4 12 0 12 -11 0 -10 5 -25 10 -33 8
-13 12 -12 27 4 12 14 13 16 2 8 -18 -14 -29 -7 -29 19 0 22 -16 33 -26 18z"/>
<path d="M1633 144 c-9 -24 10 -49 38 -51 24 -2 24 -2 -1 6 -19 5 -25 14 -25
34 1 31 -3 34 -12 11z"/>
<path d="M6 123 c-6 -14 -5 -15 5 -6 7 7 10 15 7 18 -3 3 -9 -2 -12 -12z"/>
<path d="M100 132 c0 -7 -9 -21 -20 -32 -11 -11 -16 -20 -10 -20 13 0 44 49
36 57 -3 3 -6 1 -6 -5z"/>
<path d="M615 119 c-6 -17 -9 -19 -16 -8 -6 9 -9 10 -9 2 0 -22 19 -24 30 -2
7 11 9 23 7 26 -3 2 -8 -5 -12 -18z"/>
<path d="M847 121 c-3 -12 -1 -19 4 -15 6 3 16 1 23 -5 10 -9 17 -7 27 6 11
16 11 16 -1 5 -12 -10 -17 -9 -31 9 l-16 22 -6 -22z"/>
<path d="M399 114 c-7 -8 -21 -13 -31 -11 -10 3 -16 1 -12 -4 9 -15 30 -10 49
11 10 11 16 20 13 20 -3 0 -11 -7 -19 -16z"/>
<path d="M1070 116 c-6 -8 -21 -17 -33 -19 -21 -4 -21 -4 -1 -6 11 0 29 8 39
19 10 11 16 20 13 20 -3 0 -11 -6 -18 -14z"/>
<path d="M186 103 c-6 -14 -5 -15 5 -6 7 7 10 15 7 18 -3 3 -9 -2 -12 -12z"/>
<path d="M1170 113 c0 -22 22 -26 38 -7 16 17 16 17 -1 4 -16 -12 -20 -12 -28
1 -5 9 -9 10 -9 2z"/>
<path d="M1370 113 c0 -22 22 -26 38 -7 16 17 16 17 -1 4 -16 -12 -20 -12 -28
1 -5 9 -9 10 -9 2z"/>
<path d="M1326 98 c3 -5 10 -6 15 -3 13 9 11 12 -6 12 -8 0 -12 -4 -9 -9z"/>
<path d="M2000 100 c-9 -6 -10 -10 -3 -10 6 0 15 5 18 10 8 12 4 12 -15 0z"/>
</g>
</svg>
